<?xml version="1.0" encoding="utf-8"?>
<!-- Generator: Adobe Illustrator 17.0.0, SVG Export Plug-In . SVG Version: 6.00 Build 0)  -->
<!DOCTYPE svg PUBLIC "-//W3C//DTD SVG 1.1//EN" "http://www.w3.org/Graphics/SVG/1.1/DTD/svg11.dtd">
<svg version="1.1" id="Layer_1" xmlns="http://www.w3.org/2000/svg" xmlns:xlink="http://www.w3.org/1999/xlink" x="0px" y="0px"
	 width="40px" height="40px" viewBox="41 30.125 40 40" enable-background="new 41 30.125 40 40" xml:space="preserve">
<g>
	<path fill="#825D5B" d="M55.818,54.371c-0.387,0.387-0.475,1.214-0.141,1.549c0.598,0.598,2.077-0.123,2.077-1.003
		c0-0.264-0.088-0.563-0.211-0.686C57.208,53.896,56.205,53.984,55.818,54.371z"/>
	<path fill="#825D5B" d="M61,30.219c-10.994,0-19.906,8.912-19.906,19.906S50.006,70.031,61,70.031s19.906-8.912,19.906-19.906
		S71.994,30.219,61,30.219z M68.876,57.222c-4.065,3.872-11.527,4.769-17.071,2.059c-5.332-2.605-5.649-7.497-0.81-12.636
		c2.041-2.182,3.942-3.537,5.913-4.241c1.126-0.405,2.446-0.44,3.132-0.088c0.827,0.422,1.126,1.179,1.003,2.569l-0.106,1.179
		l1.179-0.405c2.957-1.003,4.945-0.616,5.491,1.056c0.176,0.528,0.07,1.425-0.246,2.2c-0.088,0.194,0.106,0.352,0.722,0.563
		C71.551,50.711,71.921,54.336,68.876,57.222z M65.867,42.738c0.317-0.317,0.528-0.369,1.408-0.299
		c1.954,0.141,3.326,1.584,3.326,3.502c0,1.566-0.774,2.306-1.725,1.637c-0.317-0.211-0.387-0.44-0.387-1.232
		c0-1.267-0.493-1.83-1.602-1.83C65.603,44.516,65.057,43.548,65.867,42.738z M74.385,46.786c-0.246,1.971-0.95,2.71-2.006,2.112
		c-0.458-0.264-0.458-0.299-0.458-2.27c0-2.217-0.123-2.587-1.197-3.801c-0.88-1.021-2.042-1.478-3.766-1.478
		c-1.232,0-1.513-0.053-1.813-0.352c-0.616-0.616-0.422-1.496,0.422-1.865c1.197-0.51,3.784-0.158,5.298,0.721
		C73.17,41.224,74.701,44.216,74.385,46.786z"/>
	<path fill="#825D5B" d="M61.801,49.215c-2.059-0.581-4.365-0.493-6.512,0.229c-1.425,0.475-2.165,0.915-3.132,1.83
		c-1.038,0.968-1.513,1.918-1.513,3.009c0,1.989,1.584,3.537,4.382,4.329c1.478,0.405,4.488,0.299,6.107-0.229
		c3.027-1.003,4.893-2.886,4.893-4.981C66.025,51.52,64.423,49.936,61.801,49.215z M59.795,57.68
		c-1.197,0.616-3.168,0.669-4.241,0.088c-1.39-0.739-2.024-1.725-2.024-3.168c0-1.584,0.95-2.851,2.728-3.678
		c1.056-0.493,2.746-0.563,3.749-0.14c1.249,0.51,2.305,1.936,2.323,3.132C62.329,55.374,61.326,56.87,59.795,57.68z"/>
</g>
</svg>
